<svg width="40" height="33" viewBox="0 0 40 33" fill="none" xmlns="http://www.w3.org/2000/svg">
<g filter="url(#filter0_d_3643_22)">
<path d="M34.2871 0.643015C33.7332 0.588671 33.131 0.668694 32.526 0.889923C31.776 1.1628 20.024 5.73562 9.06901 10.0014L5.44922 11.4106C4.04755 11.9363 3.33984 12.7913 3.33984 13.9429C3.33984 14.7492 3.70875 15.8428 5.46875 16.4873L11.5788 18.7516C12.1071 20.2177 13.3342 23.6218 13.6426 24.5268C13.8259 25.0633 14.289 26.4149 15.459 26.7309C15.699 26.8064 15.9494 26.8453 16.2044 26.8453C16.9428 26.8453 17.4744 26.5275 17.7344 26.3425L21.6178 23.3043L26.3346 27.3391C26.5163 27.5103 27.4779 28.3749 28.7695 28.3749C30.3812 28.3749 31.6037 27.1339 31.8587 25.933C31.9971 25.2747 36.5462 4.15084 36.5462 4.15392C36.9546 2.45963 36.2204 1.58071 35.7487 1.20608C35.3445 0.886189 34.8411 0.697359 34.2871 0.643015ZM33.1836 3.97326C32.5553 6.88701 29.13 22.7914 28.61 25.0839L21.7155 19.1852L17.0378 22.8496L18.3333 18.1614C18.3333 18.1614 27.2709 9.79302 27.8092 9.30586C28.2426 8.91582 28.3333 8.77909 28.3333 8.64342C28.3333 8.46305 28.233 8.33328 28.0013 8.33328C27.793 8.33328 27.51 8.51794 27.36 8.60428C25.4544 9.7032 17.3402 13.9792 13.3464 16.0808L7.55208 13.9399L10.3646 12.8469C17.5296 10.0565 30.2903 5.08634 33.1836 3.97326Z" fill="black"/>
<path d="M32.6978 1.35951L32.697 1.35979C31.954 1.63012 20.2116 6.19914 9.25044 10.4673L9.2504 10.4674L5.63061 11.8765L5.62482 11.8788L5.6248 11.8787C4.97801 12.1213 4.53387 12.4244 4.25333 12.7617C3.97944 13.0911 3.83984 13.4782 3.83984 13.9429C3.83984 14.269 3.9137 14.6391 4.15649 14.9928C4.39866 15.3455 4.83763 15.7237 5.64066 16.0177L5.6425 16.0184L11.7525 18.2827L11.9704 18.3635L12.0492 18.5821L12.0864 18.6853C12.6319 20.1992 13.8128 23.476 14.1159 24.3655M32.6978 1.35951L13.6426 24.5268M32.6978 1.35951C33.2396 1.16139 33.7664 1.09433 34.2383 1.14063C34.7097 1.18687 35.119 1.34536 35.4383 1.59805C35.6248 1.74628 35.8622 1.99341 36.0133 2.37093C36.1625 2.74369 36.2425 3.28023 36.0601 4.03677L36.0673 4.0385M32.6978 1.35951L36.0673 4.0385M14.1159 24.3655L13.6426 24.5268M14.1159 24.3655C14.1158 24.3654 14.1158 24.3653 14.1157 24.3651L13.6426 24.5268M14.1159 24.3655C14.2076 24.6341 14.353 25.0537 14.6017 25.4417C14.8505 25.8297 15.17 26.1349 15.5894 26.2482L15.5993 26.2509L15.6091 26.254C15.8007 26.3143 16.0005 26.3453 16.2044 26.3453C16.7876 26.3453 17.2137 26.0979 17.4357 25.9413M13.6426 24.5268C13.8259 25.0633 14.289 26.4149 15.459 26.7309C15.699 26.8064 15.9494 26.8453 16.2044 26.8453C16.9428 26.8453 17.4744 26.5275 17.7344 26.3425M17.4357 25.9413L17.4263 25.9487L17.7344 26.3425M17.4357 25.9413L21.3098 22.9105L21.632 22.6584L21.9429 22.9244L26.6597 26.9592L26.6688 26.967L26.6775 26.9752C26.8468 27.1347 27.6842 27.8749 28.7695 27.8749C30.1228 27.8749 31.1586 26.8218 31.3695 25.8296C31.4401 25.4938 32.6119 20.0489 33.7656 14.6902C34.3428 12.0088 34.9158 9.34797 35.3445 7.35775L35.8617 4.95654L36.0063 4.2854L36.0444 4.10877L36.0542 4.06336L36.0568 4.05149L36.0576 4.04768L36.0582 4.04499C36.0583 4.04482 36.0614 4.04248 36.0673 4.0385M17.4357 25.9413C17.4386 25.9392 17.4416 25.9372 17.4445 25.9351L17.7344 26.3425M17.7344 26.3425L21.6178 23.3043L26.3346 27.3391C26.5163 27.5103 27.4779 28.3749 28.7695 28.3749C30.3812 28.3749 31.6037 27.1339 31.8587 25.933C31.9882 25.3169 35.9812 6.77435 36.4925 4.4027C36.3481 4.38501 36.1917 4.31701 36.0462 4.15392L36.5337 4.21183L36.0673 4.0385M33.6724 4.07866L33.8673 3.17449L33.0041 3.5066C30.1987 4.58586 18.1244 9.28822 10.8609 12.117L10.1835 12.3808L10.1831 12.381L7.37097 13.4738L6.14138 13.9517L7.37879 14.4089L13.1731 16.5498L13.382 16.627L13.5792 16.5232C17.2214 14.6067 24.3198 10.8664 26.9807 9.39158C26.1157 10.1963 24.2993 11.8941 22.5279 13.5512C21.377 14.6277 20.2429 15.689 19.3966 16.4812L18.3767 17.4359L18.0921 17.7023L18.0173 17.7724L17.9981 17.7904L17.9932 17.7949L17.992 17.796L17.9917 17.7963C17.9916 17.7964 17.9916 17.7964 18.3333 18.1614L17.9916 17.7964L17.8889 17.8926L17.8514 18.0282L16.5558 22.7165L16.1517 24.1789L17.3461 23.2432L21.7015 19.8313L28.285 25.4638L28.9144 26.0023L29.0976 25.1945C29.5676 23.1227 32.4034 9.96604 33.4138 5.27808C33.5231 4.77089 33.6111 4.36283 33.6724 4.07866Z" stroke="black"/>
</g>
<defs>
<filter id="filter0_d_3643_22" x="-0.660156" y="0.626587" width="41.3257" height="35.7484" filterUnits="userSpaceOnUse" color-interpolation-filters="sRGB">
<feFlood flood-opacity="0" result="BackgroundImageFix"/>
<feColorMatrix in="SourceAlpha" type="matrix" values="0 0 0 0 0 0 0 0 0 0 0 0 0 0 0 0 0 0 127 0" result="hardAlpha"/>
<feOffset dy="4"/>
<feGaussianBlur stdDeviation="2"/>
<feComposite in2="hardAlpha" operator="out"/>
<feColorMatrix type="matrix" values="0 0 0 0 0 0 0 0 0 0 0 0 0 0 0 0 0 0 0.25 0"/>
<feBlend mode="normal" in2="BackgroundImageFix" result="effect1_dropShadow_3643_22"/>
<feBlend mode="normal" in="SourceGraphic" in2="effect1_dropShadow_3643_22" result="shape"/>
</filter>
</defs>
</svg>
